<svg width="35" height="37" viewBox="0 0 35 37" fill="none" xmlns="http://www.w3.org/2000/svg">
<path d="M33.349 16.754C32.4365 16.754 31.698 17.5347 31.698 18.4994C31.698 26.7757 25.3283 33.5094 17.4994 33.5094C9.67044 33.5094 3.30195 26.7757 3.30195 18.4994C3.30195 10.223 9.67044 3.49064 17.4994 3.49064C19.6789 3.49064 21.7685 3.99865 23.7095 4.99927C24.5347 5.42197 25.517 5.05892 25.9181 4.19492C26.3161 3.32772 25.9763 2.28283 25.1572 1.86013C22.7599 0.62539 20.1837 0 17.4994 0C7.85018 0 0 8.29877 0 18.4994C0 28.7 7.85018 37 17.4994 37C27.1486 37 35 28.7 35 18.4994C35 17.5347 34.2616 16.754 33.349 16.754Z" fill="#666666"/>
<path d="M13.8007 16.8914C13.1598 16.2153 12.1216 16.2153 11.4807 16.8914C10.8398 17.5675 10.8398 18.6628 11.4807 19.339L15.4183 23.4931C15.7385 23.8308 16.1587 24 16.5784 24C16.998 24 17.4176 23.8308 17.7384 23.4931L31.5193 8.95465C32.1602 8.27852 32.1602 7.18323 31.5193 6.5071C30.8784 5.83097 29.8402 5.83097 29.1993 6.5071L16.5784 19.8217L13.8007 16.8914Z" fill="#666666"/>
</svg>
