<svg width="54" height="54" viewBox="0 0 54 54" fill="none" xmlns="http://www.w3.org/2000/svg">
<path d="M37.2574 37.1443C36.9329 37.4723 36.4915 37.658 36.0301 37.6606C35.5687 37.6631 35.1252 37.4822 34.7972 37.1578L26.9637 29.4097L19.2157 37.2432C18.8912 37.5712 18.4497 37.7569 17.9883 37.7594C17.527 37.762 17.0835 37.5811 16.7554 37.2566C16.4274 36.9322 16.2417 36.4907 16.2392 36.0293C16.2366 35.5679 16.4175 35.1244 16.742 34.7964L24.49 26.963L16.6566 19.2149C16.3285 18.8904 16.1428 18.449 16.1403 17.9876C16.1378 17.5262 16.3186 17.0827 16.6431 16.7547C16.9675 16.4266 17.409 16.2409 17.8704 16.2384C18.3318 16.2359 18.7753 16.4167 19.1033 16.7412L26.9368 24.4892L34.6848 16.6558C35.0093 16.3278 35.4508 16.1421 35.9121 16.1395C36.3735 16.137 36.817 16.3179 37.1451 16.6423C37.4731 16.9668 37.6588 17.4083 37.6613 17.8696C37.6639 18.331 37.483 18.7745 37.1585 19.1026L29.4105 26.936L37.2439 34.6841C37.572 35.0085 37.7577 35.45 37.7602 35.9114C37.7627 36.3728 37.5819 36.8163 37.2574 37.1443Z" fill="#CA07CD"/>
</svg>
