<svg width="21" height="17" viewBox="0 0 21 17" fill="none" xmlns="http://www.w3.org/2000/svg">
<path d="M0 15.5799C0 16.3175 0.597973 16.9155 1.33561 16.9155H19.6644C20.402 16.9155 21 16.3175 21 15.5799C21 14.8423 20.402 14.2443 19.6644 14.2443H1.33561C0.597972 14.2443 0 14.8423 0 15.5799ZM0 8.90184C0 9.63948 0.597973 10.2375 1.33561 10.2375H19.6644C20.402 10.2375 21 9.63948 21 8.90184C21 8.16421 20.402 7.56623 19.6644 7.56623H1.33561C0.597972 7.56623 0 8.16421 0 8.90184ZM1.33561 0.888184C0.597972 0.888184 0 1.48616 0 2.22379C0 2.96143 0.597973 3.5594 1.33561 3.5594H19.6644C20.402 3.5594 21 2.96143 21 2.22379C21 1.48616 20.402 0.888184 19.6644 0.888184H1.33561Z" fill="#88298A"/>
</svg>
